<?xml version="1.0" encoding="utf-8"?>
<!-- Generator: Adobe Illustrator 26.0.0, SVG Export Plug-In . SVG Version: 6.00 Build 0)  -->
<svg version="1.1" id="Calque_1" xmlns="http://www.w3.org/2000/svg" xmlns:xlink="http://www.w3.org/1999/xlink" x="0px" y="0px"
	 viewBox="0 0 30 30" style="enable-background:new 0 0 30 30;" xml:space="preserve">
<style type="text/css">
	.st0{fill:#333333;stroke:#333333;stroke-width:2;stroke-miterlimit:10;}
</style>
<g>
	<path class="st0" d="M25.3,7.8H4.7C4.3,7.8,4,7.5,4,7.1v0c0-0.4,0.3-0.7,0.7-0.7h20.6c0.4,0,0.7,0.3,0.7,0.7v0
		C26,7.5,25.7,7.8,25.3,7.8z"/>
	<path class="st0" d="M25.3,15.7H4.7C4.3,15.7,4,15.4,4,15v0c0-0.4,0.3-0.7,0.7-0.7h20.6c0.4,0,0.7,0.3,0.7,0.7v0
		C26,15.4,25.7,15.7,25.3,15.7z"/>
	<path class="st0" d="M25.3,23.6H4.7c-0.4,0-0.7-0.3-0.7-0.7v0c0-0.4,0.3-0.7,0.7-0.7h20.6c0.4,0,0.7,0.3,0.7,0.7v0
		C26,23.3,25.7,23.6,25.3,23.6z"/>
</g>
</svg>
