<?xml version="1.0" encoding="utf-8"?>
<!-- Generator: Adobe Illustrator 26.0.0, SVG Export Plug-In . SVG Version: 6.00 Build 0)  -->
<svg version="1.1" id="Calque_1" xmlns="http://www.w3.org/2000/svg" xmlns:xlink="http://www.w3.org/1999/xlink" x="0px" y="0px"
	 viewBox="0 0 200 200" style="enable-background:new 0 0 200 200;" xml:space="preserve">
<style type="text/css">
	.st0{fill:#0070FF;}
</style>
<g>
	<path class="st0" d="M102.5,5c1.2,0.3,2.5,0.6,3.7,1c9.5,3,15.8,12.8,14.3,22.3C118.9,39,110.5,46.5,100,46.5
		c-10.2,0-19-7.4-20.6-17.5C77.7,17.8,85.2,7.3,96.3,5.3c0.4-0.1,0.7-0.2,1-0.3C99.1,5,100.8,5,102.5,5z"/>
	<path class="st0" d="M127.6,194.9c-5,0-8.8-2.3-10.5-7.3c-1.4-4.1-2.1-8.5-3-12.8c-3.1-14.9-5.9-29.8-10.7-44.2
		c-0.5-1.5-1.1-2.9-1.9-4.2c-0.4-0.7-1.2-1.6-1.8-1.6c-0.6,0-1.4,1-1.7,1.7c-1.2,2.8-2.5,5.6-3.2,8.5c-3.2,13.7-6.3,27.4-9.3,41.1
		c-0.8,3.4-1.2,7-2.3,10.3c-2.4,7.6-9.6,10.6-16.9,7.3c-4.3-2-6.6-6.2-5.8-10.9c3.7-20.3,7.5-40.5,11-60.8c1.7-9.9,3-19.9,3.9-29.9
		c0.7-7.4-0.9-9-7.9-11.2c-10.5-3.3-21.1-6.5-31.6-9.9c-3.1-1-6.1-2.5-8.7-4.3C20.7,62,21.8,51,28.8,47.4c2.2-1.1,4.4-1.1,6.7-0.4
		c15.6,4.7,31.5,8.2,47.7,10.5c12.9,1.8,25.7,1.3,38.6-0.7c14.4-2.3,28.6-5.6,42.6-9.7c4.6-1.3,8.3,0,10.7,4.2
		c3,5.2,3.9,12.3-4.3,16.7c-3.1,1.7-6.5,2.9-9.9,4.1c-9.5,3.4-19.1,6.7-28.6,10c-0.1,0-0.1,0-0.2,0.1c-7.5,3-8.5,4-7.7,12.5
		c1.4,15.8,4.4,31.4,7.3,47c2.6,13.5,5.1,27,7.6,40.6C140.5,189.4,135.5,194.8,127.6,194.9z"/>
</g>
</svg>
