<?xml version="1.0" encoding="utf-8"?>
<!-- Generator: Adobe Illustrator 26.0.0, SVG Export Plug-In . SVG Version: 6.00 Build 0)  -->
<svg version="1.1" id="Calque_1" xmlns="http://www.w3.org/2000/svg" xmlns:xlink="http://www.w3.org/1999/xlink" x="0px" y="0px"
	 viewBox="0 0 141.7 141.7" style="enable-background:new 0 0 141.7 141.7;" xml:space="preserve">
<style type="text/css">
	.st0{fill:#0070FF;}
</style>
<g>
	<path class="st0" d="M47.8,92.5c1.4,0,2.7,0,4.1,0c21.3,0,42.5,0,63.9,0c2.1,0,4.2-0.1,6.2-0.8c4.1-1.4,6.4-5.8,5.7-10.1
		c-0.7-4.7-4.2-7.9-9.2-8c-13.6-0.1-27.1,0-40.7,0c-9,0-18,0-27,0c-1,0-2.1,0-4,0c1.5-1.6,2.3-2.5,3.1-3.3
		c5.8-5.9,11.7-11.7,17.6-17.6c4.6-4.6,4.8-10.3,0.7-14.3c-3.9-3.8-9.6-3.5-14,0.8C41.8,51.3,29.6,63.5,17.5,75.7
		c-4.6,4.6-4.7,9.9-0.3,14.3c12.7,12.3,25.1,24.7,37.4,37.2c3.1,3.1,6.6,4,10.6,2.4c3.4-1.3,5.4-4,5.8-7.8c0.3-3.3-0.8-5.9-3.2-8.2
		c-5.7-5.6-11.3-11.3-16.9-16.9c-1.1-1.1-2.5-2.1-3.8-3.2C47.5,93.3,47.7,92.8,47.8,92.5z"/>
</g>
</svg>
