<?xml version="1.0" encoding="utf-8"?>
<!-- Generator: Adobe Illustrator 26.0.0, SVG Export Plug-In . SVG Version: 6.00 Build 0)  -->
<svg version="1.1" id="Calque_1" xmlns="http://www.w3.org/2000/svg" xmlns:xlink="http://www.w3.org/1999/xlink" x="0px" y="0px"
	 viewBox="0 0 480 480" style="enable-background:new 0 0 480 480;" xml:space="preserve">
<style type="text/css">
	.st0{fill:#7C4DFF;}
	.st1{fill:#FFFFFF;}
</style>
<g>
	<path class="st0" d="M73.7,114.4C72.9,91.3,90.9,70,115.3,70h249.5c24.4,0,42.4,21.3,41.5,44.4c-0.8,22.2,0.2,51,7.5,74.4
		c7.3,23.5,19.5,38.4,39.6,40.3v21.7c-20.1,1.9-32.3,16.8-39.6,40.3c-7.2,23.5-8.2,52.2-7.5,74.4c0.8,23.1-17.2,44.4-41.5,44.4
		H115.3c-24.3,0-42.4-21.3-41.6-44.4c0.8-22.2-0.2-51-7.5-74.4c-7.3-23.5-19.5-38.4-39.6-40.3v-21.7c20.1-1.9,32.3-16.8,39.6-40.3
		C73.5,165.4,74.5,136.6,73.7,114.4z"/>
	<path class="st1" d="M270.7,234.6v-0.3c18.5-3.2,33-20.6,33-39.7c0-13.5-5.2-25-15-33.1c-9.8-8.1-23.6-12.4-39.8-12.4h-74.4v181.7
		h74.8c19.4,0,35.6-4.7,46.6-13.7c11.1-9,17-22.1,17-37.8C312.8,255.4,295.9,237.6,270.7,234.6z M235.9,226.1h-31.8v-53.2h37.8
		c20.8,0,32.2,9.1,32.2,25.7C274.1,216.3,260.5,226.1,235.9,226.1z M204.1,248.3h37.6c27.2,0,40.9,9.8,40.9,29.2
		c0,19.3-13.6,29.5-39.2,29.5h-39.3L204.1,248.3L204.1,248.3z"/>
</g>
</svg>
