<?xml version="1.0" encoding="utf-8"?>
<!-- Generator: Adobe Illustrator 26.0.0, SVG Export Plug-In . SVG Version: 6.00 Build 0)  -->
<svg version="1.1" id="Calque_1" xmlns="http://www.w3.org/2000/svg" xmlns:xlink="http://www.w3.org/1999/xlink" x="0px" y="0px"
	 viewBox="0 0 30 30" style="enable-background:new 0 0 30 30;" xml:space="preserve">
<style type="text/css">
	.st0{fill:#333333;stroke:#333333;stroke-width:2;stroke-miterlimit:10;}
</style>
<g>
	<path class="st0" d="M23.8,23.1L5.4,8C5.1,7.8,5.1,7.3,5.3,7l0,0c0.2-0.3,0.6-0.4,0.9-0.2L24.6,22c0.3,0.2,0.3,0.7,0.1,1l0,0
		C24.5,23.3,24.1,23.4,23.8,23.1z"/>
	<path class="st0" d="M6.2,23.1L24.6,8c0.3-0.2,0.3-0.7,0.1-1l0,0c-0.2-0.3-0.6-0.4-0.9-0.2L5.4,22c-0.3,0.2-0.3,0.7-0.1,1l0,0
		C5.5,23.3,5.9,23.4,6.2,23.1z"/>
</g>
</svg>
