<?xml version="1.0" encoding="utf-8"?>
<!-- Generator: Adobe Illustrator 26.0.0, SVG Export Plug-In . SVG Version: 6.00 Build 0)  -->
<svg version="1.1" id="Calque_1" xmlns="http://www.w3.org/2000/svg" xmlns:xlink="http://www.w3.org/1999/xlink" x="0px" y="0px"
	 viewBox="0 0 384 384" style="enable-background:new 0 0 384 384;" xml:space="preserve">
<style type="text/css">
	.st0{fill:none;stroke:#FFFFFF;stroke-width:24;stroke-miterlimit:10;}
	.st1{fill:#FFFFFF;stroke:#FFFFFF;stroke-width:16;stroke-miterlimit:10;}
</style>
<g>
	<g>
		<g>
			<g>
				<circle class="st0" cx="192" cy="192" r="180.8"/>
			</g>
		</g>
	</g>
	<path class="st1" d="M102.5,281.5L102.5,281.5c2.5,2.5,6.7,2.5,9.2,0l169.7-169.7c2.5-2.5,2.5-6.7,0-9.2v0c-2.5-2.5-6.7-2.5-9.2,0
		L102.5,272.2C100,274.8,100,278.9,102.5,281.5z"/>
	<path class="st1" d="M281.5,281.5L281.5,281.5c-2.5,2.5-6.7,2.5-9.2,0L102.5,111.8c-2.5-2.5-2.5-6.7,0-9.2l0,0
		c2.5-2.5,6.7-2.5,9.2,0l169.7,169.7C284,274.8,284,278.9,281.5,281.5z"/>
</g>
</svg>
