<?xml version="1.0" encoding="utf-8"?>
<!-- Generator: Adobe Illustrator 26.0.0, SVG Export Plug-In . SVG Version: 6.00 Build 0)  -->
<svg version="1.1" id="Calque_1" xmlns="http://www.w3.org/2000/svg" xmlns:xlink="http://www.w3.org/1999/xlink" x="0px" y="0px"
	 viewBox="0 0 200 200" style="enable-background:new 0 0 200 200;" xml:space="preserve">
<style type="text/css">
	.st0{fill:#FFFFFF;}
</style>
<path class="st0" d="M123.2,149.8c-7.2-0.1-14.9-3.2-22.2-7.5c-8.5-5-15.8-11.5-22.6-18.5c-7.2-7.4-14.5-14.8-19.9-23.8
	c-4.1-6.7-7.3-13.7-7.9-21.6c-0.5-5.7,0.2-11.3,2.4-16.7c2.1-5.1,6.2-8.3,10.8-10.9c2.2-1.2,4.5-0.6,6.2,1
	c5.8,5.6,11.6,11.2,17.3,16.9c2.4,2.4,2.3,5.2,0.1,7.9c-2.5,3-5,5.9-7.6,8.8c-0.8,0.9-1.1,1.5-0.4,2.7c7.6,14.3,18.6,25.3,33.1,32.6
	c0.6,0.3,1.7,0,2.2-0.4c2.9-2.4,5.7-5,8.7-7.4c2.8-2.3,5.6-2.4,8.2,0.2c5.6,5.6,11.1,11.2,16.6,17c2.1,2.2,2.1,5,0.4,7.6
	C142.8,146.4,136.5,149.6,123.2,149.8z"/>
</svg>
