<?xml version="1.0" encoding="utf-8"?>
<!-- Generator: Adobe Illustrator 26.0.0, SVG Export Plug-In . SVG Version: 6.00 Build 0)  -->
<svg version="1.1" id="Calque_1" xmlns="http://www.w3.org/2000/svg" xmlns:xlink="http://www.w3.org/1999/xlink" x="0px" y="0px"
	 viewBox="0 0 480 480" style="enable-background:new 0 0 480 480;" xml:space="preserve">
<style type="text/css">
	.st0{fill:#0277BD;}
	.st1{fill:#039BE5;}
	.st2{fill:#FFFFFF;}
	.st3{fill:#EEEEEE;}
</style>
<path class="st0" d="M410,95.6H70l30,340l140,40l140-40L410,95.6L410,95.6z"/>
<path class="st1" d="M240,125.6v319l112-32l25-287H240z"/>
<path class="st2" d="M331,175.6h-91v40h49l-3,40h-46v40h44l-3,45l-41,14v42l79-26l7-115l0,0L331,175.6z"/>
<path class="st3" d="M240,175.6v40h-89l-3-40H240z M194,255.6l2,40h44v-40H194z M198,315.6h-40l3,55l79,26v-42l-41-14L198,315.6z"/>
<path d="M212.3,46.7c8.9,0,17.6,0,26.3,0c2.4,0,4.1-0.2,2.9-3.6c-9.5,0-19.1,0-29.1,0c0-14.1,0-27.8,0-41.9c16.7,0,33.6,0,50.7,0
	c0,5.9,0,11.8,0,18.4c-7.6,0-15.3,0-23,0c-1.4,0-2.9-0.3-4.2,0.1c-1.1,0.3-1.9,1.5-2.9,2.2c0.3,0.4,0.5,0.8,0.8,1.2
	c9.6,0,19.2,0,29.2,0c0,14.4,0,28.4,0,42.8c-16.7,0-33.6,0-50.7,0C212.3,59.8,212.3,53.6,212.3,46.7z"/>
<path d="M273.9,66c0-6.5,0-12.7,0-19.3c8.9,0,17.6,0,26.2,0c2.3,0,4.2-0.1,3-3.7c-9.5,0-19.3,0-29.2,0c0-14.1,0-27.7,0-41.7
	c16.8,0,33.7,0,50.8,0c0,6,0,11.9,0,18.3c-8.9,0-17.5,0-26.2,0c-2.3,0-4.2,0.1-3,3.7c9.5,0,19.3,0,29.2,0c0,14.4,0,28.4,0,42.7
	C307.9,66,291.1,66,273.9,66z"/>
<path d="M150.5,65.1c0-21.5,0-42.4,0-63.8c16.9,0,33.7,0,50.9,0c0,6.7,0,13.6,0,21c-9.7,0-19.4,0-29.3,0c0,7.3,0,14.1,0,21.3
	c9.6,0,19.3,0,29.3,0c0,7.4,0,14.3,0,21.4C184.5,65.1,167.7,65.1,150.5,65.1z"/>
</svg>
