<?xml version="1.0" encoding="utf-8"?>
<!-- Generator: Adobe Illustrator 26.0.0, SVG Export Plug-In . SVG Version: 6.00 Build 0)  -->
<svg version="1.1" id="Calque_1" xmlns="http://www.w3.org/2000/svg" xmlns:xlink="http://www.w3.org/1999/xlink" x="0px" y="0px"
	 viewBox="0 0 200 200" style="enable-background:new 0 0 200 200;" xml:space="preserve">
<style type="text/css">
	.st0{fill:#0070FF;}
</style>
<g>
	<path class="st0" d="M92.9,192.2c-4.1-0.9-8.3-1.5-12.2-2.7c-19.3-6-33.1-18.9-43.2-35.9C16.3,118.3,22.6,73.7,52.5,46.3
		c8.9-8.1,19.1-12.8,31.5-10.3c1.9,0.4,3.8,1.1,5.5,2.1c6.9,3.8,8.3,10,3.9,16.5c-1.8,2.7-3.7,5.3-5.1,8.2
		c-5.5,11.3,0.3,19.8,12.8,18.1c7.2-0.9,14.2-3.5,21.4-5.4c3.6,6.7,7.8,14.3,11.7,21.9c0.6,1.2,0.7,3.1,0.2,4.4
		c-4.5,11.7-2.5,21.5,6.6,30.1c2.2,2.1,4.9,3.8,7.1,6c2.8,2.7,5.1,5.9,7.9,8.7c2.3,2.3,4.8,4.3,7.6,6.6
		c-6.1,9.8-14.6,18.6-24.9,25.4c-10.2,6.8-21.3,11.5-33.6,12.8c-0.6,0.1-1.2,0.4-1.7,0.6C99.8,192.2,96.4,192.2,92.9,192.2z
		 M87.1,172.2c8.8-0.1,15.5-6.8,15.4-15.5c-0.1-8.7-7-15.4-15.7-15.3c-8.4,0.2-15.2,7.2-15.1,15.6C71.8,165.5,78.7,172.3,87.1,172.2
		z M55.4,111.1c-7.5,0-13.3,5.9-13.3,13.4c0,7.3,6.2,13.4,13.5,13.3c7.1-0.1,13.2-6.2,13.2-13.3C68.9,117.2,62.8,111.1,55.4,111.1z
		 M139.7,146c0-6.9-5.5-12.9-12.1-13c-6.9-0.1-13.2,6-13.3,12.7c-0.1,6.9,5.8,12.8,12.6,12.9C133.9,158.7,139.7,152.9,139.7,146z
		 M68.7,84c0.1-6.1-5.1-11.4-11.2-11.5c-6.2,0-11.4,5.1-11.4,11.2c0,6.1,5,11.3,11.2,11.5C63.2,95.5,68.7,90.1,68.7,84z"/>
	<path class="st0" d="M134.5,7.8c1.2,1.5,3,2.7,3.7,4.4c6.2,15.2,12.3,30.4,18.4,45.6c0.2,0.5,0.3,1.1,0.4,1.6
		c-6.7,2-13.3,3.9-20.2,6c-1.2-6.1-2.4-12.5-3.6-19c-1.8-9.7-3.4-19.4-5.3-29.1c-0.8-3.8-0.3-7,3-9.4C132.1,7.8,133.3,7.8,134.5,7.8
		z"/>
	<path class="st0" d="M170.3,135.9c-5-4.5-9.7-8.7-14.5-12.9c-4.4-3.8-8.3-7.7-8.1-14.2c0.2-6.1,4.3-12,9.4-13.3
		c5.3-1.4,11.3,1.5,14.6,7.1c4.2,7.2,3.8,14.9,2,22.7C172.8,129.1,171.4,132.7,170.3,135.9z"/>
	<path class="st0" d="M138.3,70.2c6.5-3.7,13.1-6.2,20.5-6.2c0.4,8.3,0.8,16.3,1.3,24.1c-3.3,1-6.5,1.9-10.3,3
		C146.2,84.7,142.4,77.7,138.3,70.2z"/>
</g>
</svg>
