<?xml version="1.0" encoding="utf-8"?>
<!-- Generator: Adobe Illustrator 26.0.0, SVG Export Plug-In . SVG Version: 6.00 Build 0)  -->
<svg version="1.1" id="Calque_1" xmlns="http://www.w3.org/2000/svg" xmlns:xlink="http://www.w3.org/1999/xlink" x="0px" y="0px"
	 viewBox="0 0 384 384" style="enable-background:new 0 0 384 384;" xml:space="preserve">
<style type="text/css">
	.st0{fill:none;stroke:#0070FF;stroke-width:16;stroke-miterlimit:10;}
	.st1{fill:#0070FF;stroke:#0070FF;stroke-width:16;stroke-miterlimit:10;}
	.st2{fill:#FFFFFF;stroke:#0070FF;stroke-width:4;stroke-miterlimit:10;}
	.st3{fill:#FFFFFF;}
</style>
<g>
	<g>
		<g>
			<circle class="st0" cx="192" cy="192" r="182.6"/>
		</g>
	</g>
	<g>
		<path class="st1" d="M244.4,282.3H110.8c-5.6,0-10.1-4.5-10.1-10.1V105.6c0-5.6,4.5-10.1,10.1-10.1h133.5
			c5.6,0,10.1,4.5,10.1,10.1v166.7C254.4,277.8,249.9,282.3,244.4,282.3z"/>
		<path class="st2" d="M269.5,288.5c-3.8-3.9-7.4-8-11.3-11.8c-9-9.1-18.1-18.2-27.3-27.3c-9.5,4.9-19.1,5.7-29,2.3
			c-14-4.8-24.5-20.4-23.1-34.6c1.9-17.9,13.9-30.6,30.3-32.8c27-3.5,47.8,24,36.2,49c-1.1,2.4-0.4,3.6,1.2,5.1
			c12.2,12.1,24.3,24.2,36.7,36.6c-4.4,4.6-8.6,9-12.9,13.4C270,288.5,269.8,288.5,269.5,288.5z M213.4,239.3
			c11.7,0.1,20.7-8.5,21-20.1c0.3-11.4-9.1-21-20.7-21.1c-11.4-0.1-20.6,9-20.8,20.5C192.8,230.2,201.7,239.2,213.4,239.3z"/>
		<rect x="121.2" y="118.6" class="st3" width="107.3" height="19.4"/>
		<rect x="121.2" y="153.8" class="st3" width="107.3" height="19.4"/>
	</g>
</g>
</svg>
