<?xml version="1.0" encoding="utf-8"?>
<!-- Generator: Adobe Illustrator 26.0.0, SVG Export Plug-In . SVG Version: 6.00 Build 0)  -->
<svg version="1.1" id="Calque_1" xmlns="http://www.w3.org/2000/svg" xmlns:xlink="http://www.w3.org/1999/xlink" x="0px" y="0px"
	 viewBox="0 0 141.7 141.7" style="enable-background:new 0 0 141.7 141.7;" xml:space="preserve">
<style type="text/css">
	.st0{fill:#FFFFFF;}
</style>
<g>
	<path class="st0" d="M21.1,120.4c33.3,0,66.3,0,99.6,0c0-1.3,0-2.4,0-3.5c0-7.2-0.1-14.4,0.1-21.5c0.1-4.4,3.5-7.7,7.8-8
		c4-0.2,7.8,2.8,8.5,6.9c0.2,1,0.2,2,0.2,3.1c0,10.1,0,20.1,0,30.2c0,6.5-3.2,9.6-9.6,9.6c-37.8,0-75.7,0-113.5,0
		c-6.7,0-9.7-3-9.7-9.8c0-10.2,0.2-20.3-0.1-30.5c-0.1-5.6,3.6-9.4,8.2-9.5c5-0.1,8.4,3.8,8.4,9.6C21.1,104.8,21.1,112.4,21.1,120.4
		z"/>
	<path class="st0" d="M62.5,74.7c0-1.2,0-2.4,0-3.6c0-18.7,0-37.3,0-56c0-1.8,0.1-3.7,0.7-5.4c1.2-3.6,5.1-5.6,8.9-5
		c4.1,0.6,6.9,3.7,7,8.1c0.1,11.9,0,23.8,0,35.7c0,7.9,0,15.8,0,23.7c0,0.9,0,1.8,0,3.5c1.4-1.3,2.2-2,2.9-2.7
		c5.2-5.1,10.3-10.3,15.4-15.4c4-4,9-4.2,12.5-0.6c3.3,3.4,3.1,8.4-0.7,12.3c-10.6,10.7-21.3,21.4-32,32c-4,4-8.7,4.1-12.5,0.3
		C53.9,90.5,43,79.6,32.1,68.8c-2.7-2.7-3.5-5.8-2.1-9.3c1.1-3,3.5-4.7,6.8-5.1c2.9-0.3,5.2,0.7,7.2,2.8c4.9,5,9.9,9.9,14.8,14.8
		c1,1,1.8,2.2,2.8,3.3C61.8,75,62.2,74.8,62.5,74.7z"/>
</g>
</svg>
