<?xml version="1.0" encoding="utf-8"?>
<!-- Generator: Adobe Illustrator 26.0.0, SVG Export Plug-In . SVG Version: 6.00 Build 0)  -->
<svg version="1.1" id="Calque_1" xmlns="http://www.w3.org/2000/svg" xmlns:xlink="http://www.w3.org/1999/xlink" x="0px" y="0px"
	 viewBox="0 0 98 96" style="enable-background:new 0 0 98 96;" xml:space="preserve">
<style type="text/css">
	.st0{fill:#333333;}
</style>
<g>
	<path class="st0" d="M51,47.9c-0.3-0.6-0.5-1-0.6-1.5c-0.4-1.3-1.1-1.6-2.5-1.2c-2.7,0.7-5.6,1.2-8.4,1.6c-3,0.4-6.1,0.6-9.3,0.9
		c-0.1,4.9,1.5,9.1,4.8,12.9C38.9,54.6,44.1,50.2,51,47.9z"/>
	<path class="st0" d="M37.4,62.9c5.6,4,11.6,5.1,18.1,2.8c0.3-0.1,0.8-0.7,0.8-0.9c-1.2-4.6-2.4-9.1-3.6-13.7
		C46,53.4,40.9,57,37.4,62.9z"/>
	<path class="st0" d="M41.1,30.9c-5.5,2.9-9,7.1-10.5,13.2c6,0,11.7-0.7,17.5-2.3C45.7,38,43.4,34.5,41.1,30.9z"/>
	<path class="st0" d="M61.4,34c-3.4-3.9-11.6-6-16.5-4.3c2.3,3.7,4.6,7.2,6.9,10.8C55.5,39.2,58.8,37.2,61.4,34z"/>
	<path class="st0" d="M49,11.8c-19.9,0.1-36.1,16.1-36.2,36c-0.1,20,16.1,36.2,36,36.3C69,84.2,85.1,68,85.1,48
		C85.2,28,69,11.8,49,11.8z M48.8,70.2c-12.1,0-22-10.1-22-22.3c0-12,10.1-22,22.2-22c12.3,0,22.2,10.1,22.2,22.3
		C71.1,60.3,61.1,70.2,48.8,70.2z"/>
	<path class="st0" d="M53.2,43.6c0.3,0.8,0.7,1.4,0.9,2.1c0.4,1.3,1.1,1.5,2.5,1.5c3.7-0.1,7.4,0.2,11.3,0.3
		c-0.1-4.1-1.4-7.9-4.2-11.3C60.7,39.6,57.1,41.8,53.2,43.6z"/>
	<path class="st0" d="M56.1,50.3c1.2,4.4,2.4,8.7,3.6,13.2c4.3-3.1,6.9-7.2,7.8-12.2C65.3,50.1,59.7,49.6,56.1,50.3z"/>
</g>
</svg>
