<?xml version="1.0" encoding="utf-8"?>
<!-- Generator: Adobe Illustrator 26.0.0, SVG Export Plug-In . SVG Version: 6.00 Build 0)  -->
<svg version="1.1" id="Calque_1" xmlns="http://www.w3.org/2000/svg" xmlns:xlink="http://www.w3.org/1999/xlink" x="0px" y="0px"
	 viewBox="0 0 384 384" style="enable-background:new 0 0 384 384;" xml:space="preserve">
<style type="text/css">
	.st0{fill:none;stroke:#0070FF;stroke-width:16;stroke-miterlimit:10;}
	.st1{opacity:0.85;fill:#0070FF;}
	.st2{fill:#0070FF;}
</style>
<g>
	<g>
		<circle class="st0" cx="192.7" cy="192" r="182.6"/>
	</g>
	<g>
		<circle class="st1" cx="226.2" cy="109.1" r="19.6"/>
		<path class="st2" d="M153,136c4.1-4.7,69.9-5.2,71.2,0c6.2,0.9,16.6,19.9,24.8,34.8c4.4-0.8,17-0.2,27.3,0c10.3,2.2,8.1,16,0,17.9
			h-40.7l-16.6-23.6L199,199.8l31.3,22c6.4,7.8,3.3,18.8-4.5,22.9c-12.9,4.8-30.2,10.1-48.9,15.7c-5.6-0.4-12.2-8.1-5.1-15.4
			l32.5-14.7L176,214.6c-24.7,32-60.6,79-60.9,78.5c-6.9,3.6-13.8-0.7-12.8-9.7l57.3-88.6c-0.8-4.1-0.2-8.1,1.5-12l18-30.5
			l-18.7-0.3c-8.6,11.6-19.8,27.6-22.6,29.4c-5.4,6.5-17.4,2.9-13.6-8.7C135.2,157.7,148.5,137.7,153,136z"/>
	</g>
</g>
</svg>
