<?xml version="1.0" encoding="utf-8"?>
<!-- Generator: Adobe Illustrator 26.0.0, SVG Export Plug-In . SVG Version: 6.00 Build 0)  -->
<svg version="1.1" id="Layer_1" xmlns="http://www.w3.org/2000/svg" xmlns:xlink="http://www.w3.org/1999/xlink" x="0px" y="0px"
	 viewBox="0 0 360 362" style="enable-background:new 0 0 360 362;" xml:space="preserve">
<style type="text/css">
	.st0{fill-rule:evenodd;clip-rule:evenodd;fill:#FFFFFF;}
	.st1{fill:#FFFFFF;}
	.st2{fill-rule:evenodd;clip-rule:evenodd;fill:#FFFFFF;stroke:#0070FF;stroke-width:7;stroke-miterlimit:10;}
</style>
<path class="st0" d="M307.5,54.2C274,20.5,228.4,1.6,180.8,1.7C82,1.7,1.5,82.1,1.5,180.9c0,31.5,8.2,62.4,23.9,89.6
	c14.4,30,37.7,52.5,69.6,68c26.3,14.3,55.7,21.8,85.7,21.8h0.1c98.8,0,179.2-80.4,179.2-179.3C360.2,133.5,341.3,87.8,307.5,54.2
	L307.5,54.2z M180.8,330L180.8,330c-26.7,0-52.9-7.2-75.9-20.8l-5.4-3.2c-18-12.1-32.7-25.3-41.3-40.2l-3.5-5.6
	c-14.9-23.8-22.8-51.2-22.8-79.3c0-82.1,66.9-149,149-149c82.3,0,149,66.7,149,149c0,0,0,0.1,0,0.1C329.7,263.2,262.9,330,180.8,330
	L180.8,330z"/>
<rect x="72.5" y="111.6" class="st1" width="216.5" height="147.7"/>
<path class="st2" d="M284.1,246.2c-33.3-23.4-70-46.9-103.3-70.3c-35.6,23.4-67.8,46.9-103.3,70.3"/>
<path class="st2" d="M77.4,116.8c33.3,23.4,70,46.9,103.3,70.3c35.6-23.4,67.8-46.9,103.3-70.3"/>
</svg>
