<?xml version="1.0" encoding="utf-8"?>
<!-- Generator: Adobe Illustrator 26.0.0, SVG Export Plug-In . SVG Version: 6.00 Build 0)  -->
<svg version="1.1" id="Calque_1" xmlns="http://www.w3.org/2000/svg" xmlns:xlink="http://www.w3.org/1999/xlink" x="0px" y="0px"
	 viewBox="0 0 480 480" style="enable-background:new 0 0 480 480;" xml:space="preserve">
<style type="text/css">
	.st0{fill:#F4511E;}
</style>
<path class="st0" d="M402.8,223L257,77.2c-4.5-4.5-10.7-7.2-17-7.2l0,0c-6.3,0-12.5,2.7-17,7.2l-31.3,31.3l36.7,36.7
	c3.6-1.8,7.2-2.7,11.6-2.7c15.2,0,26.8,11.6,26.8,26.8c0,4.5-0.9,8.1-2.7,11.6l35.8,35.8c3.6-1.8,7.2-2.7,11.6-2.7
	c15.2,0,26.8,11.6,26.8,26.8s-11.6,26.8-26.8,26.8s-26.8-11.6-26.8-26.8c0-4.5,0.9-8.1,2.7-11.6l-35.8-35.8c-0.9,0-1.8,0.9-2.7,0.9
	v93.1c10.7,3.6,17.9,13.4,17.9,25.1c0,15.2-11.6,26.8-26.8,26.8c-15.2,0-26.8-11.6-26.8-26.8c0-11.6,7.2-21.5,17.9-25.1v-93.9
	c-10.7-3.6-17.9-13.4-17.9-25.1c0-4.5,0.9-8.1,2.7-11.6l-36.7-36.7L77.2,223c-4.5,4.5-7.2,10.7-7.2,17s2.7,12.5,7.2,17L223,402.8
	l0,0c4.5,4.5,10.7,7.2,17,7.2s12.5-2.7,17-7.2L402.8,257c4.5-4.5,7.2-10.7,7.2-17C410,233.7,407.3,227.5,402.8,223z"/>
</svg>
