<?xml version="1.0" encoding="utf-8"?>
<!-- Generator: Adobe Illustrator 26.0.0, SVG Export Plug-In . SVG Version: 6.00 Build 0)  -->
<svg version="1.1" id="Calque_1" xmlns="http://www.w3.org/2000/svg" xmlns:xlink="http://www.w3.org/1999/xlink" x="0px" y="0px"
	 viewBox="0 0 98 96" style="enable-background:new 0 0 98 96;" xml:space="preserve">
<style type="text/css">
	.st0{fill-rule:evenodd;clip-rule:evenodd;fill:#FFFFFF;}
	.st1{fill:#FFFFFF;}
</style>
<path class="st0" d="M49,12.6c-19.9,0-36,16.2-36,36.3c0,16,10.3,29.6,24.6,34.4c1.8,0.4,2.4-0.8,2.4-1.7c0-0.8-0.1-3.7-0.1-6.7
	c-10,2.2-12.1-4.3-12.1-4.3c-1.6-4.2-4-5.3-4-5.3C20.6,63,24.1,63,24.1,63c3.6,0.2,5.5,3.7,5.5,3.7c3.2,5.5,8.4,4,10.5,3
	c0.3-2.3,1.3-4,2.3-4.9c-8-0.8-16.4-4-16.4-17.9c0-4,1.4-7.2,3.7-9.7c-0.4-0.9-1.6-4.6,0.4-9.6c0,0,3-1,9.9,3.7c2.9-0.8,6-1.2,9-1.2
	c3,0,6.1,0.4,9,1.2c6.9-4.7,9.9-3.7,9.9-3.7c2,5,0.7,8.7,0.4,9.6C70.6,39.8,72,43,72,47c0,13.9-8.4,17-16.5,17.9
	c1.3,1.1,2.4,3.3,2.4,6.7c0,4.9-0.1,8.8-0.1,10c0,1,0.7,2.1,2.4,1.7C74.7,78.5,85,64.9,85,48.9C85.1,28.8,68.9,12.6,49,12.6z"/>
<path class="st1" d="M41.4,109.9c-15,0-27.1,12.1-27.1,27.1c0,12.7,8.7,23.3,20.4,26.3v-18H29V137l5.7,0.1c-1.4-14.7,6-18.9,19-16.4
	v7.4c-7.3-0.6-9.9,0.3-9.3,8.9h8.9l-1.6,8.3h-7.3V164c13.5-1.5,24.1-13,24.1-26.9C68.5,122.1,56.3,109.9,41.4,109.9z"/>
</svg>
