<?xml version="1.0" encoding="utf-8"?>
<!-- Generator: Adobe Illustrator 26.0.0, SVG Export Plug-In . SVG Version: 6.00 Build 0)  -->
<svg version="1.1" id="Calque_1" xmlns="http://www.w3.org/2000/svg" xmlns:xlink="http://www.w3.org/1999/xlink" x="0px" y="0px"
	 viewBox="0 0 200 200" style="enable-background:new 0 0 200 200;" xml:space="preserve">
<style type="text/css">
	.st0{fill:#FFFFFF;}
</style>
<path class="st0" d="M96.3,51.5L51.9,93c-3.8,3.6-1.4,10.3,3.7,10.3h8v40.8c0,3.3,2.5,5.9,5.6,5.9h17.1c3.1,0,5.6-2.6,5.6-5.9v-26
	h8.3h8.3v26c0,3.3,2.5,5.9,5.6,5.9h17.1c3.1,0,5.6-2.6,5.6-5.9v-40.8h8c5.1,0,7.5-6.7,3.7-10.3l-44.4-41.5
	C101.6,49.5,98.4,49.5,96.3,51.5z"/>
</svg>
