<?xml version="1.0" encoding="utf-8"?>
<!-- Generator: Adobe Illustrator 26.0.0, SVG Export Plug-In . SVG Version: 6.00 Build 0)  -->
<svg version="1.1" id="Calque_1" xmlns="http://www.w3.org/2000/svg" xmlns:xlink="http://www.w3.org/1999/xlink" x="0px" y="0px"
	 viewBox="0 0 480 480" style="enable-background:new 0 0 480 480;" xml:space="preserve">
<style type="text/css">
	.st0{fill:#E65100;}
	.st1{fill:#FF6D00;}
	.st2{fill:#FFFFFF;}
	.st3{fill:#EEEEEE;}
</style>
<g>
	<path class="st0" d="M410,95.6H70l30,340l140,40l140-40L410,95.6L410,95.6z"/>
	<path class="st1" d="M240,125.6v319l112-32l25-287H240z"/>
	<path class="st2" d="M240,295.6v-40h86l-7,115l-79,26v-42l41-14l3-45H240L240,295.6z M329,215.6l3-40h-92v40H329z"/>
	<path class="st3" d="M240,354.6v42l-79-26l-4-55h40l2,25L240,354.6z M191,215.6h49v-40h-91l7,120h84v-40h-46L191,215.6z"/>
	<path d="M281.8,26.6c0.7-1.1,1.2-1.8,1.7-2.6c3.6-5.9,7.3-11.8,10.8-17.8c0.8-1.4,1.7-1.8,3.3-1.8c5.7,0.1,11.4,0,17.1,0
		c0.7,0,1.5,0.1,2.4,0.1c0,20.8,0,41.4,0,62c-1.6,0.6-17.5,0.7-20.4,0.1c0-3.2,0-6.6,0-9.9c0-3.4,0-6.9,0-10.3
		c0-3.3,0.1-6.6-0.1-9.9c-0.2,0-0.4-0.1-0.6-0.1c-4.7,7.2-9.3,14.4-14.2,21.9c-4.8-7.4-9.5-14.6-14.3-21.9c-0.9,0.8-0.6,1.7-0.6,2.4
		c0,8.5,0,16.9,0,25.4c0,0.8,0,1.6,0,2.4c-2,0.5-17.5,0.6-20.2,0.2c0-20.6,0-41.3,0-62.2c0.7-0.1,1.4-0.2,2-0.2c5.9,0,11.7,0,17.6,0
		c1.5,0,2.3,0.4,3.1,1.7c3.6,6,7.3,12,10.9,18C280.6,24.8,281.1,25.5,281.8,26.6z"/>
	<path d="M148.6,66.9c0-7,0-13.8,0-20.5c-2-0.6-16.7-0.6-19.2-0.1c-0.5,2.2-0.2,4.5-0.2,6.7c-0.1,2.3,0,4.6,0,6.9c0,2.3,0,4.5,0,6.7
		c-1.9,0.5-17.8,0.6-20.5,0.2c-0.5-1.6-0.6-59.2-0.1-62.2c6.6,0,13.3,0,20.3,0c0.1,6.8,0,13.5,0.1,20.4c6.7,0,13,0,19.7,0
		c0.1-6.8,0-13.5,0.1-20.4c6.9,0,13.6,0,20.2,0c0.1,0,0.1,0.1,0.2,0.1c0.1,0.1,0.1,0.1,0.1,0.2c0.1,0.3,0.1,0.6,0.1,0.9
		c0,19.9,0,39.8,0,59.7c0,0.3,0,0.6-0.1,0.9c0,0.1-0.1,0.3-0.3,0.5C162.3,66.9,155.6,66.9,148.6,66.9z"/>
	<path d="M197.5,25c-6.3,0-12.2,0-18.4,0c-0.4-2.4-0.2-4.7-0.2-6.9c0-2.2,0-4.4,0-6.6c0-2.3,0-4.5,0-6.9c19.4,0,38.5,0,57.7,0
		c0,6.8,0,13.4,0,20.4c-6.1,0-12.1,0-18.3,0c-0.2,4.9-0.1,9.5-0.1,14.2c0,4.6,0,9.1,0,13.7c0,4.6,0,9.2,0,13.8
		c-2,0.5-17.4,0.7-20.6,0.2c-0.1-3.4,0-6.9,0-10.4c0-3.4,0-6.9,0-10.3c0-3.5,0-7,0-10.5C197.5,32.2,197.5,28.8,197.5,25z"/>
	<path d="M378.3,46.6c0,6.9,0,13.5,0,20c-1.6,0.5-46.7,0.7-50,0.2c-0.5-1.6-0.6-59.3-0.2-62c1.7-0.4,17.7-0.5,20.4-0.1
		c0,13.8,0,27.6,0,41.7c3.5,0.2,6.7,0.1,10,0.1c3.2,0,6.4,0,9.6,0C371.4,46.6,374.7,46.6,378.3,46.6z"/>
</g>
</svg>
