<?xml version="1.0" encoding="utf-8"?>
<!-- Generator: Adobe Illustrator 26.0.0, SVG Export Plug-In . SVG Version: 6.00 Build 0)  -->
<svg version="1.1" id="Calque_1" xmlns="http://www.w3.org/2000/svg" xmlns:xlink="http://www.w3.org/1999/xlink" x="0px" y="0px"
	 viewBox="0 0 200 200" style="enable-background:new 0 0 200 200;" xml:space="preserve">
<style type="text/css">
	.st0{fill:#0070FF;}
</style>
<g>
	<path class="st0" d="M200,106.3c-2.3,2.7-4.5,5.6-7,8.2c-10.7,10.8-21.4,21.6-32.3,32.3c-3.8,3.7-8.3,4.3-12.4,1.8
		c-3.8-2.3-5.9-6.7-4.4-11c0.7-2.1,2.2-4.1,3.8-5.8c8.4-8.6,16.9-17,25.3-25.4c0.9-0.9,2-1.7,3.3-2.7c-8.1-8-15.7-15.6-23.3-23.3
		c-2.1-2.1-4.3-4.2-6.3-6.4c-4.1-4.4-4.2-10.4-0.3-14.3c3.9-3.9,10-4,14.3,0.2c8.9,8.7,17.8,17.5,26.5,26.5
		c4.5,4.6,8.6,9.6,12.9,14.4C200,102.6,200,104.5,200,106.3z"/>
	<path class="st0" d="M70.9,176.6c-8.3,0-12.8-7.3-9.7-14.4c4.4-10.2,9.1-20.4,13.7-30.5c15-33.3,29.9-66.5,44.9-99.8
		c0.2-0.4,0.4-0.7,0.5-1.1c3-6.4,8.2-8.9,13.7-6.5c5.5,2.4,7.3,8.2,4.5,14.5c-4.4,10-8.9,19.9-13.4,29.8
		c-15.1,33.5-30.2,67-45.2,100.5C77.9,173.6,75.1,176.5,70.9,176.6z"/>
	<path class="st0" d="M24.3,100.1c7.6,7.6,15,15,22.4,22.4c2.2,2.2,4.5,4.4,6.6,6.6c4.3,4.6,4.4,10.6,0.3,14.6
		c-4.1,3.9-9.9,3.9-14.3-0.5c-10.6-10.4-21-21-31.5-31.4c-1.6-1.6-3.2-3.1-4.7-4.7c-4.1-4.5-4.2-10,0.1-14.3
		c12.1-12.2,24.2-24.4,36.4-36.4c4.2-4.1,10.1-4,14-0.2c4,3.9,4.1,10-0.1,14.3c-8.9,9.1-18,18.1-27,27.1
		C25.9,98.4,25.2,99.2,24.3,100.1z"/>
</g>
</svg>
