<?xml version="1.0" encoding="utf-8"?>
<!-- Generator: Adobe Illustrator 26.0.0, SVG Export Plug-In . SVG Version: 6.00 Build 0)  -->
<svg version="1.1" id="Calque_1" xmlns="http://www.w3.org/2000/svg" xmlns:xlink="http://www.w3.org/1999/xlink" x="0px" y="0px"
	 viewBox="0 0 480 480" style="enable-background:new 0 0 480 480;" xml:space="preserve">
<style type="text/css">
	.st0{fill:#0773B4;}
	.st1{fill:#141E2D;}
</style>
<g>
	<path class="st0" d="M131.2,78.1c-0.8,4.6-1.5,8.5-2.1,12.3c-6.9,43.2,1.1,82.7,30.8,115.8c26,29,57.6,49.6,96.7,56.4
		c38,6.6,73.2-0.7,104.6-23.7c1.9-1.4,3.7-3,5.5-4.5c0.3,0.2,0.5,0.4,0.8,0.6c-3.8,5.5-7.2,11.4-11.5,16.5
		c-22.6,26.6-51.3,41.8-86.2,44.7c-35.7,3.1-69.1-4.2-98.8-24.8c-30.3-21-52.4-48.5-62.8-84.4c-8-27.6-8.5-55.1,3.8-81.8
		C116.5,95.4,125.2,82.9,131.2,78.1z"/>
	<path class="st0" d="M201.8,55.2c-0.4,9.9-1.3,20.1-1,30.3c0.9,28.9,13.2,52.4,35.1,70.9c15.1,12.7,31.9,22.6,51.1,27.5
		c30.8,7.9,59.1,2.6,84-18.1c1.2-1,2.5-1.8,4.3-2.3c-2.5,4.1-4.7,8.5-7.6,12.3c-13.1,17.4-31.1,26.7-52,31.1
		c-41.9,8.9-76.5-4.3-105.1-35.1c-19-20.5-27.4-44.9-26.4-72.7C184.6,83.9,192.5,64.5,201.8,55.2z"/>
	<path class="st1" d="M177.2,398.3c-1.1,4.8-2.1,9.1-3.3,13.4c-0.2,0.8-1.7,1.7-2.6,1.7c-17.2-0.1-34.4,0-51.6-0.7
		c-11.2-0.5-19.4-10.3-20.2-21.6c-0.9-14.2,1.6-27.3,8.9-39.6c11.7-19.6,32.7-24.4,51.2-18.6c13,4.1,21.5,19.4,18.3,33.1
		c-2,8.7-4.9,17.3-7.6,25.8c-1.7,5.5-1.8,5.5,3.8,6C174.9,397.9,175.7,398.1,177.2,398.3z M140.1,397.4
		C140.1,397.5,140.1,397.5,140.1,397.4c2.4,0,4.8-0.1,7.1,0c2.3,0.2,3.6-0.9,4.2-3c2.6-10.1,5.4-20.1,7.8-30.2
		c1.3-5.3-1.7-11.6-6-14.2c-10-6.1-24.2-1.7-28.2,9.3c-2.5,7-4.4,14.3-5.7,21.6c-1.8,10.6,3.2,16.1,14,16.5
		C135.6,397.5,137.9,397.4,140.1,397.4z"/>
	<path class="st1" d="M290,389.2c-5.6,0-11.2,0-16.7,0c-2.1,0-4.6-0.3-5,2.6c-0.4,3-0.1,6.2,3.3,7c4.3,0.9,8.9,1.3,13.3,1.5
		c6.5,0.3,13,0.2,19.6,0.2c1.9,0,2.6,0.9,2.2,2.7c-0.7,3.5-1.3,7-2.3,10.4c-0.3,0.9-1.8,2-2.7,2c-12.8-0.1-25.6-0.1-38.3-0.8
		c-8.4-0.5-13.5-7-13.4-15.5c0.1-11.4,2.8-22.3,7.3-32.7c4-9.2,12.2-12.9,20.8-15.9c7.9-2.7,15.9-2.2,23.7,0.6
		c8,2.8,12.9,10,12.1,18.5c-0.5,5.5-1.7,11-2.5,16.5c-0.3,2.4-1.5,3.1-3.8,3C301.6,389.1,295.8,389.2,290,389.2
		C290,389.2,290,389.2,290,389.2z M271.9,375.3c7.6,0,14.8,0.1,22-0.2c0.6,0,1.9-2.4,1.6-3.3c-0.6-1.9-1.6-4.2-3.2-5.2
		C285,361.6,274.5,365.8,271.9,375.3z"/>
	<path class="st1" d="M209.9,349c-1.2,6.5-2.2,12.3-3.5,18c-1.9,8.7-4.1,17.3-3.5,26.3c0.2,2.9,1.4,4.1,4.1,4.1
		c4.3,0,8.5,0.3,12.8,0c1.1-0.1,2.8-1.9,3-3.1c3-13.2,5.9-26.3,8.7-39.5c1.2-5.7,1.4-5.9,7.2-5.8c3,0.1,5.9,0.1,8.9,0.2
		c0.3,0,0.6,0.3,1.4,0.6c-0.6,3.3-1.2,6.6-1.8,10c-3.4,16.5-7,32.9-10.3,49.4c-0.7,3.5-2.1,4.8-5.6,4.7c-9.8-0.2-19.7-0.1-29.6-0.3
		c-12-0.3-17.8-6-16.7-17.9c1.1-11.6,3.5-23.2,5.4-34.7c0.5-3,1.1-6.1,2.1-9c0.4-1.1,1.9-2.6,3-2.6C199.9,348.8,204.2,349,209.9,349
		z"/>
	<path class="st0" d="M362.7,114c-6.5,9.3-15.1,15.1-25.9,17.2c-43.1,8.5-78.5-20.2-83.8-58.8c-1.7-12.2,2.1-22.9,9.3-32.8
		c-3,27.6,7.5,49,29.5,64.9C313.7,120.4,337.2,124.3,362.7,114z"/>
	<path class="st1" d="M433.8,340.2c-2.1,3.2-4,6.6-6.3,9.6c-9.6,12.9-19.8,25.5-28.9,38.7c-4.6,6.6-7.7,14.3-11.2,21.7
		c-1,2.1-2,3.2-4.4,3.2c-4.8-0.1-9.7,0-15,0c0.9-3.2,1.9-5.9,2.3-8.7c1.2-7.5-0.7-14.6-2.9-21.6c-1-3.4-1.8-6.9-2.9-10.2
		c-0.9-3,0.2-3.8,3.1-3.7c3.4,0.2,6.9,0.2,10.3-0.1c3.3-0.3,5.1,1,5.8,4.2c0.4,1.7,1,3.4,1.8,5.7c1.2-1.2,2.1-2,2.8-3
		c7.6-11,15.3-22,22.8-33c1.9-2.8,4-4,7.4-3.8c4.8,0.3,9.7,0.1,14.5,0.1C433.3,339.5,433.5,339.8,433.8,340.2z"/>
	<path class="st1" d="M348.6,349.1c7.1,0,14.3-0.2,21.4,0.1c6.7,0.2,12,6.7,10.9,13.4c-0.1,0.8-1.8,1.8-2.7,1.8
		c-10.6,0.1-21.1,0.1-31.7-0.1c-3.5-0.1-5,0.9-5.7,4.5c-2.6,13.5-5.6,26.9-8.4,40.3c-0.6,3.1-2.1,4.8-5.6,4.4
		c-2.6-0.3-5.2-0.2-7.8-0.1c-4.6,0.1-4.8,0.1-3.9-4.5c2.3-11.1,4.8-22.2,7.1-33.3c1.7-7.9,3.2-15.8,4.7-23.7c0.5-2.7,2-3.5,4.5-3.4
		c5.7,0.1,11.4,0,17.1,0C348.6,348.7,348.6,348.9,348.6,349.1z"/>
	<path class="st1" d="M92.5,369c-1.9,8.9-3.6,16.9-5.5,25c-2.3,9.9-4.6,19.8-7.2,29.7c-3,11.6-9.2,16.4-21.1,16.7
		c-3.2,0.1-6.4-0.1-9.6,0c-2.5,0-3.5-0.9-2.7-3.5c0.8-2.7,1.6-5.5,1.9-8.3c0.5-3.6,2.7-5,5.9-4.8c4.3,0.3,6.1-2,7.7-5.4
		c4.4-9.5,5.7-19.7,7.7-29.8c1.1-5.3,2.4-10.6,3.7-15.9c0.6-2.7,2.1-3.9,5.1-3.8C82.9,369.2,87.3,369,92.5,369z"/>
	<path class="st1" d="M75.5,363.4c1.1-4.9,1.9-9.1,2.9-13.1c0.1-0.6,1.2-1.2,1.9-1.3c5.2-0.1,10.4-0.1,16.3-0.1
		c-1,4.7-1.8,8.9-2.8,13.1c-0.1,0.6-1.2,1.3-1.9,1.3C86.7,363.5,81.4,363.4,75.5,363.4z"/>
</g>
</svg>
