<?xml version="1.0" encoding="utf-8"?>
<!-- Generator: Adobe Illustrator 26.0.0, SVG Export Plug-In . SVG Version: 6.00 Build 0)  -->
<svg version="1.1" id="Calque_1" xmlns="http://www.w3.org/2000/svg" xmlns:xlink="http://www.w3.org/1999/xlink" x="0px" y="0px"
	 viewBox="0 0 98 96" style="enable-background:new 0 0 98 96;" xml:space="preserve">
<style type="text/css">
	.st0{fill:#FFFFFF;}
</style>
<path class="st0" d="M49,11.8c20,0,36.2,16.2,36.1,36.2c0,20-16.2,36.2-36.3,36.1c-19.9-0.1-36.1-16.3-36-36.3
	C12.9,27.9,29.1,11.9,49,11.8z M51.4,44.4c0-0.2,0-0.3,0-0.3c0-0.8,0-1.7,0-2.5c0-0.1,0-0.2,0-0.3c0-0.3-0.2-0.5-0.5-0.5
	c-0.1,0-0.2,0-0.2,0c-2.6,0-5.2,0-7.8,0c-0.1,0-0.2,0-0.3,0c-0.3,0.1-0.4,0.2-0.5,0.5c0,0.3,0,0.5,0,0.8c0,8.3,0,16.5,0,24.8
	c0,0.4,0,0.8,0,1.3c0,0.5,0.2,0.6,0.6,0.6c2.7,0,5.4,0,8.1,0c0.5,0,0.6-0.2,0.6-0.6c0-0.5,0-1.1,0-1.6c0-3.5,0-7,0-10.6
	c0-1.1,0-2.3,0-3.4c0.1-1.6,0.8-2.9,2.1-3.9c1.2-0.9,2.5-1.2,3.9-0.9c1.7,0.4,2.7,1.5,3.2,3.2c0.3,1,0.4,2,0.4,3c0,2.3,0,4.5,0,6.8
	c0,2.4,0,4.8,0,7.3c0,0.7,0.2,0.9,0.8,0.8c2.5,0,5.1,0,7.6,0c0.6,0,0.9,0,0.9-0.9c0-4.7,0-9.3,0-14c0-1.4,0-2.8-0.2-4.2
	c-0.2-1.4-0.5-2.7-1.1-3.9c-1.1-2.3-2.8-3.9-5.1-4.8c-1.8-0.7-3.7-0.9-5.7-0.7c-1.3,0.1-2.5,0.5-3.6,1.2c-1.2,0.7-2.1,1.6-2.9,2.7
	C51.6,44.2,51.6,44.3,51.4,44.4z M27.7,54.7C27.7,54.7,27.7,54.7,27.7,54.7c0,0.7,0,1.3,0,2c0,3.7,0,7.4,0,11.2
	c0,0.7,0.2,0.8,0.8,0.8c2.6,0,5.1,0,7.7,0c0.1,0,0.2,0,0.3,0c0.3,0,0.4-0.2,0.5-0.4c0-0.2,0-0.4,0-0.5c0-1.3,0-2.5,0-3.8
	c0-7.4,0-14.7,0-22.1c0-0.2,0-0.4,0-0.6c0-0.2-0.1-0.3-0.3-0.3c-0.2,0-0.4,0-0.6,0c-2.5,0-5.1,0-7.6,0c-0.1,0-0.3,0-0.4,0
	c-0.2,0-0.3,0.2-0.4,0.4c0,0.2,0,0.4,0,0.5C27.7,46,27.7,50.3,27.7,54.7z M37.7,32.1c0-0.1,0-0.3,0-0.5c0-0.1,0-0.1,0-0.2
	c-0.3-1.8-1.4-3-3.1-3.7c-1.2-0.4-2.3-0.5-3.5-0.2c-2.1,0.5-3.7,2-3.9,4.5c-0.1,2,1,3.8,2.8,4.6c1.1,0.5,2.2,0.6,3.4,0.4
	C35.5,36.7,37.6,35.2,37.7,32.1z"/>
</svg>
