<?xml version="1.0" encoding="utf-8"?>
<!-- Generator: Adobe Illustrator 26.0.0, SVG Export Plug-In . SVG Version: 6.00 Build 0)  -->
<svg version="1.1" id="Calque_1" xmlns="http://www.w3.org/2000/svg" xmlns:xlink="http://www.w3.org/1999/xlink" x="0px" y="0px"
	 viewBox="0 0 384 384" style="enable-background:new 0 0 384 384;" xml:space="preserve">
<style type="text/css">
	.st0{fill:none;stroke:#0070FF;stroke-width:16;stroke-miterlimit:10;}
	.st1{fill:#0070FF;}
</style>
<g>
	<circle class="st0" cx="192" cy="192" r="182.6"/>
	<g>
		<circle class="st1" cx="192.3" cy="118.6" r="28.9"/>
		<path class="st1" d="M285,235.4c0,0-30.2-30.7-30.2-30.7c-12.4-21.2-25.4-47.7-30.4-49.3c-7.6-4.1-19.8-6.2-31.9-6.3v0
			c-0.2,0-0.3,0-0.5,0c-0.2,0-0.3,0-0.5,0v0c-12.1,0.1-24.3,2.2-31.9,6.3c-5,1.7-18,28.1-30.4,49.3c0,0-30.2,30.7-30.2,30.7
			c-7.2,13.4,4.7,25.5,17.6,21.2c6.1-4.5,20-18.2,31.8-29.2l10.5-17.7l1.5,37.7l-35.2,10.4c-16.3,10.8-12.5,35.8,5.5,36.3
			c7,0.7,36.9-6.4,61.4-11.6c24.4,5.2,54.3,12.3,61.4,11.6c18.1-0.6,21.8-25.6,5.5-36.3l-35.2-10.4l1.5-37.7l10.5,17.7
			c11.8,11,25.7,24.7,31.8,29.2C280.3,260.9,292.2,248.7,285,235.4z"/>
	</g>
</g>
</svg>
