<?xml version="1.0" encoding="utf-8"?>
<!-- Generator: Adobe Illustrator 26.0.0, SVG Export Plug-In . SVG Version: 6.00 Build 0)  -->
<svg version="1.1" id="Calque_1" xmlns="http://www.w3.org/2000/svg" xmlns:xlink="http://www.w3.org/1999/xlink" x="0px" y="0px"
	 viewBox="0 0 480 480" style="enable-background:new 0 0 480 480;" xml:space="preserve">
<style type="text/css">
	.st0{fill:#00796B;}
	.st1{fill:#F57F17;}
</style>
<g>
	<path class="st0" d="M0,350.4h19.2v-70.8l26.7,60.6c3.3,7.6,7.8,10.2,16.6,10.2s13.2-2.7,16.4-10.2l26.7-59v69.3h19.2v-72.6
		c0-7-2.8-10.4-8.5-12.1c-13.7-4.3-22.8-0.6-27,8.7L62,336.1l-26.5-61.6c-4-9.3-13.3-13-27-8.7c-5.7,1.7-8.5,5.1-8.5,12.1L0,350.4
		L0,350.4L0,350.4z"/>
	<path class="st0" d="M134.4,292.8h19.2v40.5c-0.2,2,0.6,7.3,9.9,7.5c4.7,0.1,28.2,0,28.5,0v-48h19.2c0.1,0,0,59.7,0,59.9
		c0.1,14.7-18.3,16.6-26.7,16.9h-50.1V360c0.1,0,47.9,0,48,0c10.9-1.2,9.6-7.1,9.6-9v-0.6h-30.1c-16.7-0.1-27.4-7.5-27.5-15.9
		C134.4,333.7,134.8,293.2,134.4,292.8z"/>
	<path class="st1" d="M220.8,350.4h48.1c6.3,0,12.4-1.3,17.3-3.6c8.1-3.7,11.4-8.8,11.4-15.4v-13.7c0-14.8-18.3-15.4-28.8-15.4
		h-19.2c-7.5,0-8.7-4.6-9.6-9.6v-9.6c0.9-3.8,2.6-9,9.2-9.6c7.7,0,48.4,0,48.4,0V264h-45.7c-7.5,0-31.1,0.9-31.1,19.2v11.9
		c0,8.4,7.4,15.2,23.4,16.9c1.8,0.1,3.6,0.2,5.4,0.2c0,0,18.7-0.4,19.2-0.2c10.8,0,9.6,8.4,9.6,9.6v9.6c0,1.3-0.3,9.6-9.7,9.6
		c-0.7,0-47.9,0-47.9,0L220.8,350.4L220.8,350.4z"/>
	<path class="st1" d="M403.2,330.8c0,11.6,6.5,18.1,23.9,19.4c1.6,0.1,3.2,0.2,4.9,0.2h48v-9.6h-44.4c-9.9,0-13.3-4.2-13.3-10.1V264
		h-19.2V330.8z"/>
	<path class="st1" d="M307,331.2v-48c0-10.2,5-17.2,19.2-19.2h6.7h34.5h5.3c14.2,2,20.8,9,20.8,19.2V331c0,8.3-2.1,12.7-9.2,15.6
		l14.9,13.4h-21.6l-10.7-9.6h-12.6l-21.4,0.1c-3.1,0-6.3-0.4-9.9-1.4C312.3,346.2,307,340.5,307,331.2z M326.2,331.2
		c1,4.7,4.7,9.6,11.4,9.6h18.6l-10.7-9.6h21.8l5.2,4.8c0,0,1.9-1.5,1.9-4.8c0-3.3-0.2-48-0.2-48c-1-4.3-5.4-9.6-11.9-9.6h-24.7
		c-7.5,0-11.4,5.5-11.4,10.6L326.2,331.2L326.2,331.2z"/>
	<path class="st0" d="M462,253.9c-10.3-0.3-18.2,0.7-24.9,3.5c-1.9,0.8-5,0.8-5.3,3.2c1.1,1.1,1.2,2.8,2.1,4.1
		c1.6,2.6,4.3,6.1,6.7,7.9c2.6,2,5.4,4.1,8.2,5.9c5,3.1,10.7,4.8,15.5,7.9c2.9,1.8,5.7,4.1,8.5,6.1c1.4,1,2.3,2.6,4.1,3.2
		c0-0.1,0-0.2,0-0.3c-0.9-1.2-1.2-2.8-2-4.1c-1.3-1.3-2.5-2.5-3.8-3.8c-3.7-4.9-8.5-9.3-13.5-12.9c-4-2.9-13-6.8-14.7-11.4
		c-0.1-0.1-0.2-0.2-0.3-0.3c2.8-0.3,6.2-1.4,8.8-2.1c4.4-1.2,8.3-0.9,12.9-2c2.1-0.6,4.1-1.2,6.2-1.8c0-0.4,0-0.8,0-1.2
		c-2.3-2.4-4-5.5-6.5-7.6c-6.6-5.6-13.7-11.2-21.1-15.8c-4.1-2.6-9.1-4.3-13.5-6.5c-1.5-0.7-4-1.1-5-2.3c-2.3-2.9-3.5-6.6-5.3-10
		c-3.7-7.1-7.3-14.8-10.5-22.3c-2.2-5.1-3.7-10.1-6.5-14.7c-13.3-21.9-27.6-35.1-49.8-48.1c-4.7-2.8-10.4-3.8-16.4-5.3
		c-3.2-0.2-6.5-0.4-9.7-0.6c-2-0.8-4-3.2-5.9-4.4c-7.4-4.7-26.2-14.8-31.6-1.5c-3.4,8.4,5.1,16.6,8.2,20.8c2.1,3,4.9,6.3,6.4,9.7
		c1,2.2,1.2,4.4,2.1,6.7c2.1,5.7,5.5,12.3,8.3,17.6c1.4,2.7,2.9,5.5,4.7,7.9c1.1,1.5,2.9,2.1,3.2,4.4c-1.8,2.5-1.9,6.5-2.9,9.7
		c-4.6,14.4-2.9,32.4,3.8,43.1c2,3.3,6.9,10.3,13.5,7.6c5.8-2.4,4.5-9.7,6.2-16.1c0.4-1.5,0.1-2.5,0.9-3.5c0,0.1,0,0.2,0,0.3
		c1.8,3.5,3.5,7,5.3,10.6c3.9,6.3,10.8,12.9,16.7,17.3c3,2.3,5.4,6.3,9.4,7.6c0-0.1,0-0.2,0-0.3c-0.1,0-0.2,0-0.3,0
		c-0.8-1.2-2-1.7-2.9-2.6c-2.3-2.2-4.9-5-6.7-7.6c-5.3-7.2-10.1-15.2-14.4-23.4c-2.1-3.9-3.8-8.3-5.6-12.3c-0.7-1.6-0.7-3.9-2.1-4.7
		c-1.9,2.9-4.7,5.3-6.2,8.8c-2.3,5.6-2.6,12.3-3.5,19.3c-0.5,0.2-0.3,0.1-0.6,0.3c-4.1-1-5.5-5.2-7-8.8c-3.8-9.1-4.6-23.8-1.2-34.3
		c0.9-2.7,4.8-11.3,3.2-13.8c-0.8-2.5-3.3-4-4.7-5.9c-1.8-2.4-3.5-5.5-4.7-8.2c-3.1-7.1-6.1-15.4-9.4-22.6c-1.6-3.4-4.2-6.9-6.4-10
		c-2.4-3.4-5.2-5.9-7-10c-0.7-1.5-1.6-3.8-0.6-5.3c0.3-1,0.8-1.4,1.8-1.8c1.7-1.3,6.4,0.4,8.2,1.2c4.7,1.9,8.6,3.8,12.6,6.5
		c1.9,1.3,3.8,3.7,6.2,4.4c0.9,0,1.8,0,2.6,0c4.1,1,8.8,0.3,12.6,1.5c6.8,2.1,12.9,5.3,18.5,8.8c16.9,10.7,30.7,25.9,40.2,44
		c1.5,2.9,2.2,5.7,3.5,8.8c2.7,6.2,6.1,12.7,8.8,18.8c2.7,6.1,5.3,12.2,9.1,17.3c2,2.7,9.7,4.1,13.2,5.6c2.4,1,6.5,2.1,8.8,3.5
		c4.4,2.7,8.7,5.9,12.9,8.8C455.3,248,461.7,251.2,462,253.9z"/>
</g>
</svg>
