<?xml version="1.0" encoding="utf-8"?>
<!-- Generator: Adobe Illustrator 26.0.0, SVG Export Plug-In . SVG Version: 6.00 Build 0)  -->
<svg version="1.1" id="Calque_1" xmlns="http://www.w3.org/2000/svg" xmlns:xlink="http://www.w3.org/1999/xlink" x="0px" y="0px"
	 viewBox="0 0 480 480" style="enable-background:new 0 0 480 480;" xml:space="preserve">
<style type="text/css">
	.st0{fill:#388E3C;}
	.st1{fill:#37474F;}
	.st2{fill:#2E7D32;}
	.st3{fill:#4CAF50;}
</style>
<g>
	<path class="st0" d="M180.8,219.1l-42.7,23.6c-1.6,0.9-2.6,2.5-2.6,4.3v47.3c0,1.8,1,3.4,2.6,4.3l42.7,23.7c1.6,0.9,3.6,0.9,5.2,0
		l42.7-23.7c1.6-0.9,2.6-2.5,2.6-4.3V247c0-1.8-1-3.4-2.6-4.3L186,219.1c-0.8-0.4-1.7-0.7-2.6-0.7
		C182.5,218.4,181.6,218.7,180.8,219.1 M400.6,261.7l-7.1,3.9c-0.3,0.1-0.4,0.4-0.4,0.7v7.9c0,0.3,0.2,0.6,0.4,0.7l7.1,3.9
		c0.3,0.1,0.6,0.1,0.9,0l7.1-3.9c0.3-0.1,0.4-0.4,0.4-0.7v-7.9c0-0.3-0.2-0.6-0.4-0.7l-7.1-3.9c-0.1-0.1-0.3-0.1-0.4-0.1
		S400.7,261.6,400.6,261.7"/>
	<path class="st1" d="M342.3,169l-20.8-11.6c-0.7-0.4-1.5-0.4-2.1,0c-0.6,0.4-1,1.1-1,1.8l0,70.1l-19.2-10.6
		c-0.8-0.4-1.7-0.7-2.6-0.7c-0.9,0-1.8,0.2-2.6,0.7h0l-42.7,23.6c-1.6,0.9-2.6,2.5-2.6,4.3v47.3c0,1.8,1,3.4,2.6,4.3l42.7,23.7
		c1.6,0.9,3.6,0.9,5.2,0l42.7-23.7c1.6-0.9,2.6-2.5,2.6-4.3V172.7C344.5,171.1,343.6,169.7,342.3,169z M317.2,283l-19.4,10.8
		c-0.7,0.4-1.6,0.4-2.3,0L276,283c-0.7-0.4-1.2-1.1-1.2-1.9v-21.5c0-0.8,0.4-1.5,1.2-1.9l19.4-10.7h0c0.4-0.2,0.8-0.3,1.2-0.3
		s0.8,0.1,1.2,0.3l19.4,10.7c0.7,0.4,1.2,1.2,1.2,2V281C318.3,281.8,317.9,282.6,317.2,283z"/>
	<path class="st2" d="M180.8,219.1l-45.3,75.2c0,1.8,1,3.4,2.6,4.3l42.7,23.7c1.6,0.9,3.6,0.9,5.2,0l45.3-75.2c0-1.8-1-3.4-2.6-4.3
		L186,219.1c-0.8-0.4-1.7-0.7-2.6-0.7C182.5,218.4,181.6,218.7,180.8,219.1"/>
	<path class="st3" d="M180.8,219.1l-42.7,23.6c-1.6,0.9-2.6,2.5-2.6,4.3l45.3,75.2c1.6,0.9,3.6,0.9,5.2,0l42.7-23.7
		c1.6-0.9,2.6-2.5,2.6-4.3L186,219.1c-0.8-0.4-1.7-0.7-2.6-0.7C182.5,218.4,181.6,218.7,180.8,219.1"/>
	<path class="st1" d="M446.3,242.3l-42.7-23.6c-0.8-0.4-1.7-0.7-2.6-0.7s-1.8,0.2-2.6,0.7h0l-42.7,23.6c-1.6,0.9-2.6,2.6-2.6,4.4
		v47.1c0,1.8,1,3.5,2.6,4.4l42.7,23.7c1.6,0.9,3.6,0.9,5.2,0l19.7-10.9c1.8-1,1.8-3.6,0-4.6L380.5,283c-0.7-0.4-1.2-1.2-1.2-2v-21.5
		c0-0.8,0.4-1.5,1.1-1.9l19.5-10.8h0c0.4-0.2,0.8-0.3,1.2-0.3c0.4,0,0.8,0.1,1.2,0.3l19.5,10.8c0.7,0.4,1.1,1.1,1.1,1.9V277
		c0,0.7,0.4,1.4,1.1,1.8c0.7,0.4,1.5,0.4,2.1,0l20.9-12.1c1.3-0.7,2.1-2.1,2.1-3.6v-16.4C448.9,244.9,447.9,243.2,446.3,242.3z
		 M124.2,242.3l-42.7-23.6c-0.8-0.4-1.7-0.7-2.6-0.7s-1.8,0.2-2.6,0.7h0l-42.7,23.6c-1.6,0.9-2.6,2.6-2.6,4.4v65
		c0,0.7,0.4,1.4,1.1,1.8c0.7,0.4,1.5,0.4,2.1,0l20.9-12.1c1.3-0.7,2.1-2.1,2.1-3.6v-38.2c0-0.8,0.4-1.5,1.1-1.9l19.5-10.8l0,0
		c0.4-0.2,0.8-0.3,1.2-0.3s0.8,0.1,1.2,0.3l19.5,10.8c0.7,0.4,1.1,1.1,1.1,1.9v38.2c0,1.5,0.8,2.9,2.1,3.6l20.9,12.1
		c0.7,0.4,1.5,0.4,2.1,0c0.6-0.4,1-1.1,1-1.8v-65C126.8,244.9,125.8,243.2,124.2,242.3z"/>
</g>
</svg>
