<?xml version="1.0" encoding="utf-8"?>
<!-- Generator: Adobe Illustrator 26.0.0, SVG Export Plug-In . SVG Version: 6.00 Build 0)  -->
<svg version="1.1" id="Calque_1" xmlns="http://www.w3.org/2000/svg" xmlns:xlink="http://www.w3.org/1999/xlink" x="0px" y="0px"
	 viewBox="0 0 384 384" style="enable-background:new 0 0 384 384;" xml:space="preserve">
<style type="text/css">
	.st0{fill:none;stroke:#0070FF;stroke-width:16;stroke-miterlimit:10;}
	.st1{fill:none;stroke:#0070FF;stroke-width:23;stroke-miterlimit:10;}
	.st2{fill:#0070FF;}
</style>
<g>
	<g>
		<circle class="st0" cx="192.8" cy="192" r="182.6"/>
	</g>
	<g>
		<circle class="st1" cx="190.3" cy="213.4" r="75"/>
		<path class="st2" d="M251.6,136.9l-6.6,6.6c-4.3,4.3-4.3,11.3,0,15.6l0,0c4.3,4.3,11.3,4.3,15.6,0l6.6-6.6
			c4.3-4.3,4.3-11.3,0-15.6v0C262.8,132.6,255.9,132.6,251.6,136.9z"/>
		<path class="st2" d="M230.4,173.6c-2.3-2.3-6-2.3-8.3,0L193,202.7c-0.9-0.2-1.8-0.3-2.7-0.3c-6.1,0-11.1,5-11.1,11.1
			s5,11.1,11.1,11.1s11.1-5,11.1-11.1c0-0.8-0.1-1.5-0.2-2.3l29.3-29.3C232.7,179.6,232.7,175.9,230.4,173.6z"/>
		<path class="st2" d="M209.9,95.5h-39.4c-7.5,0-13.5,6-13.5,13.5s6,13.5,13.5,13.5h3.3V139h33.9v-16.4h2.2c7.5,0,13.5-6,13.5-13.5
			S217.3,95.5,209.9,95.5z"/>
	</g>
</g>
</svg>
