<?xml version="1.0" encoding="utf-8"?>
<!-- Generator: Adobe Illustrator 26.0.0, SVG Export Plug-In . SVG Version: 6.00 Build 0)  -->
<svg version="1.1" id="Calque_1" xmlns="http://www.w3.org/2000/svg" xmlns:xlink="http://www.w3.org/1999/xlink" x="0px" y="0px"
	 viewBox="0 0 200 200" style="enable-background:new 0 0 200 200;" xml:space="preserve">
<style type="text/css">
	.st0{fill:#0070FF;}
</style>
<g>
	<path class="st0" d="M133.6,77.8c-1.6,1.7-3.5,3.6-5.2,5.5c-1.1,1.3-2.9,2.8-2.9,4.1c0.1,2.4,1.1,4.6,4.7,4.5
		c11.7-0.2,10.3-1.7,10.5,10.9c0.1,3.9-1.3,5.6-5.2,5.2c-1.9-0.2-3.9-0.3-5.8,0.1c-1.3,0.3-3.1,1.2-3.5,2.3
		c-0.5,1.3,0.3,3.1,0.5,4.6c0,0.1,0.2,0.2,0.3,0.3c7.6,8.1,7.5,9.8-1.9,16.6c-0.9,0.7-3.2,0.6-4.2-0.1c-2.1-1.4-3.5-3.7-5.5-5.2
		c-1.2-0.8-3.3-1.3-4.5-0.8c-1.2,0.5-2.4,2.4-2.5,3.8c-0.5,10.9-0.5,10.8-11.3,10.7c-3.7,0-5.2-1.3-4.9-5c0.2-2.1,0.3-4.2-0.1-6.2
		c-0.3-1.3-1.4-2.9-2.5-3.3c-1.2-0.5-2.8,0.2-4.2,0.5c-0.2,0-0.4,0.4-0.6,0.6c-2.6,2-6.2,6.2-7.7,5.6c-3.6-1.5-6.3-5.2-9.1-8.3
		c-0.6-0.6-0.1-2.8,0.6-3.8c1.4-1.9,3.6-3.2,4.9-5.2c0.9-1.3,1.4-3.5,0.9-4.9c-0.4-1.1-2.5-2.2-3.9-2.3
		c-11.8-0.2-10.2,1.5-10.5-11.1c-0.1-3.9,1.2-5.6,5.2-5.2c1.9,0.2,3.9,0.3,5.8-0.1c1.3-0.3,3.1-1.2,3.5-2.3c0.5-1.3-0.3-3.1-0.5-4.6
		c0-0.1-0.2-0.2-0.3-0.3c-7.7-8.1-7.5-9.8,1.9-16.6c0.9-0.7,3.2-0.6,4.2,0.1c2.1,1.4,3.5,3.7,5.5,5.2c1.2,0.8,3.3,1.3,4.5,0.8
		c1.2-0.5,2.4-2.4,2.5-3.8c0.6-11,0.5-10.9,11.7-10.7c3.2,0.1,4.7,1.2,4.5,4.5c-0.1,2.2-0.3,4.5,0.1,6.7c0.2,1.3,1.4,2.9,2.5,3.4
		c1.2,0.5,2.8-0.2,4.2-0.5c0.5-0.1,0.8-0.9,1.3-1.2c2.4-1.8,5.9-5.7,7-5.1c3.6,2,6.4,5.6,9.5,8.6C133.2,76.3,133.2,76.8,133.6,77.8z
		 M100.2,112.5c6.9,0.1,12.6-5.6,12.6-12.4c0.1-6.9-5.6-12.6-12.4-12.6c-6.9-0.1-12.6,5.5-12.6,12.4
		C87.7,106.8,93.3,112.5,100.2,112.5z"/>
	<path class="st0" d="M116.6,164.3c1.2,4.8,2.3,9,3.4,13.1c-16.8,6.8-50,3.8-73.2-17.2c-14.7-13.3-23.8-29.8-26.2-49.5
		c-2.4-18.9-0.8-25.1,12.3-56c-4-3.4-8.3-7.2-13.7-11.8c13,0,24.4,0,36,0c0,11.5,0,23,0,35.8c-3.9-4.8-7.2-8.9-10.5-13
		c-13.2,22.2-13.9,43.5-3,65c6.9,13.6,17.7,23.5,31.6,29.8C87.1,166.6,101.4,167.9,116.6,164.3z"/>
	<path class="st0" d="M167.6,144.6c4.3,3.8,8.5,7.6,12.8,11.4c-0.2,0.5-0.4,0.9-0.6,1.4c-5.7,0-11.4,0-17.1,0c-5.7,0-11.3,0-17.3,0
		c0-11.6,0-23,0-35c3.6,4.2,7,8.2,10.4,12.1c0.6-0.4,1.3-0.9,1.9-1.3c11.2-21,12.6-42.7,1-63.8c-16.2-29.3-42-39.4-74.5-34.1
		c-0.2-0.3-0.6-0.7-0.7-1.1c-1-3.9-2-7.8-2.9-11.7c17-6.8,50.3-3.8,73.5,17.6c14.6,13.4,23.3,29.9,26,49.7
		C182.7,109.4,178,127.3,167.6,144.6z"/>
</g>
</svg>
