<?xml version="1.0" encoding="utf-8"?>
<!-- Generator: Adobe Illustrator 26.0.0, SVG Export Plug-In . SVG Version: 6.00 Build 0)  -->
<svg version="1.1" id="Calque_1" xmlns="http://www.w3.org/2000/svg" xmlns:xlink="http://www.w3.org/1999/xlink" x="0px" y="0px"
	 viewBox="0 0 384 384" style="enable-background:new 0 0 384 384;" xml:space="preserve">
<style type="text/css">
	.st0{fill:none;stroke:#0070FF;stroke-width:16;stroke-miterlimit:10;}
	.st1{fill:#0070FF;}
</style>
<g>
	<g>
		<g>
			<g>
				<circle class="st0" cx="192" cy="192" r="182.6"/>
			</g>
		</g>
	</g>
</g>
<g>
	<path class="st1" d="M103.1,127.1c1.5,1.6,2.7,2.9,4,4.2c9.9,9.8,19.8,19.6,29.8,29.4c0.8,0.8,1.1,1.5,1.1,2.6
		c0,28.8-0.1,57.6-0.1,86.4c0,17.1,0,34.2,0,51.2c0,0.6,0,1.1,0,1.8c-11.7,0-23.3,0-34.9,0C103.1,244.3,103.1,185.9,103.1,127.1z"/>
	<path class="st1" d="M190.4,302.7c-11.7,0-23.2,0-34.9,0c0-41.9,0-83.8,0-125.8c0.4,0.2,0.7,0.4,1,0.6c10.6,8.7,21.6,16.8,33,24.4
		c0.7,0.5,1,1,1,1.9c0,32.6,0,65.2,0,97.8C190.5,302,190.5,302.3,190.4,302.7z"/>
	<path class="st1" d="M295.2,233c-11.6-2.6-22.7-5.8-33.5-9.9c-21.1-7.9-40.9-18.3-59.8-30.6c-22.6-14.7-43.4-31.5-63-50
		c-11.7-11.1-22.8-22.7-33.4-34.8c-0.6-0.7-1.2-1.4-1.9-2.2c-4.9,3.8-9.7,7.6-14.8,11.6c1.5-12.1,3-23.9,4.5-35.8
		c11.9,1.5,23.7,2.9,35.8,4.5c-5,3.9-9.8,7.7-14.8,11.5c2,2.3,4,4.6,5.9,6.8c18.4,20.6,38.4,39.6,60.1,56.7
		c21.3,16.8,44,31.4,68.7,42.7c14.5,6.6,29.4,11.9,44.9,15.6c0.5,0.1,1.2,0.6,1.2,1C295.2,224.2,295.2,228.5,295.2,233z"/>
	<path class="st1" d="M207.9,213.6c3.9,2.1,7.5,4.3,11.3,6.3c7.4,3.7,14.9,7.3,22.4,11c0.8,0.4,1.3,0.8,1.3,1.8c0,23,0,45.9,0,68.9
		c0,0.4,0,0.7-0.1,1.2c-11.6,0-23.2,0-34.9,0C207.9,273,207.9,243.4,207.9,213.6z"/>
	<path class="st1" d="M260.3,302.7c0-21.4,0-42.8,0-63.9c11.5,3.2,23.1,6.5,34.8,9.7c0,17.8,0,35.9,0,54.2
		C283.5,302.7,271.9,302.7,260.3,302.7z"/>
</g>
</svg>
