<?xml version="1.0" encoding="utf-8"?>
<!-- Generator: Adobe Illustrator 26.0.0, SVG Export Plug-In . SVG Version: 6.00 Build 0)  -->
<svg version="1.1" id="Calque_1" xmlns="http://www.w3.org/2000/svg" xmlns:xlink="http://www.w3.org/1999/xlink" x="0px" y="0px"
	 viewBox="0 0 200 200" style="enable-background:new 0 0 200 200;" xml:space="preserve">
<style type="text/css">
	.st0{fill:#1877F2;}
</style>
<g>
	<path class="st0" d="M155,100c0,13.2,0,26.3,0,39.5c-0.1,0.1-0.2,0.2-0.2,0.3c-0.7,5.9-6.1,11.8-14.4,11.8c-27-0.1-53.9,0-80.9-0.1
		c-1.2,0-2.5-0.1-3.7-0.4c-6.5-1.5-10.7-6.9-10.8-13.6c0-12.2,0-24.5,0-36.7c0-0.3,0-0.5,0.1-0.8c13.9,0,27.7,0,41.5,0
		c-1.2,6.3,0.6,11.4,6,14.9c4.7,3.1,9.8,3.1,14.6,0c5.5-3.5,7.3-8.6,6.1-15C127.2,100,141.1,100,155,100z"/>
	<path class="st0" d="M100,100c1.7,0,3.5,0,5.2,0c0.4,0,0.8,0.3,1,0.7c1.4,2.7,0.5,6.1-2,8.2c-2.4,1.9-5.9,1.9-8.3,0
		c-2.5-2-3.4-5.3-2.1-8.2c0.2-0.5,0.5-0.7,1.1-0.7C96.5,100,98.3,100,100,100z"/>
	<path class="st0" d="M154.2,71.6c-1.9-5.7-7.1-9.3-13.2-9.4c-6.4,0-12.8,0-19.2,0c-0.4,0-0.8,0-1.3,0c0-2.1,0-4.1,0-6.1
		c0-4.9-2.8-7.7-7.6-7.7c-8.7,0-17.3,0-26,0c-4.8,0-7.6,2.8-7.6,7.6c0,2,0,4,0,6.1c-0.4,0-0.8,0-1.2,0c-6.4,0-12.9,0-19.3,0
		c-6.6,0-12,4.3-13.5,10.8c-0.2,0.9-0.3,1.9-0.3,2.9c0,5.5,0,11.1,0,16.6c0,0.2,0,0.3,0,0.7c36.6,0,73.3,0,109.9,0
		c0-6.3,0-12.6,0-18.9C154.7,73.3,154.5,72.4,154.2,71.6z M113.7,62.2c-9.2,0-18.3,0-27.5,0c0-1.1,0-2.1,0-3.2
		c0-2.2,1.4-3.6,3.7-3.6c4,0,8,0,12,0c2.7,0,5.4,0,8,0c2.3,0,3.7,1.4,3.8,3.7C113.8,60.1,113.7,61.1,113.7,62.2z"/>
</g>
</svg>
