<?xml version="1.0" encoding="utf-8"?>
<!-- Generator: Adobe Illustrator 26.0.0, SVG Export Plug-In . SVG Version: 6.00 Build 0)  -->
<svg version="1.1" id="Calque_1" xmlns="http://www.w3.org/2000/svg" xmlns:xlink="http://www.w3.org/1999/xlink" x="0px" y="0px"
	 viewBox="0 0 480 480" style="enable-background:new 0 0 480 480;" xml:space="preserve">
<style type="text/css">
	.st0{fill:#80DEEA;}
</style>
<g>
	<path class="st0" d="M240,339.7c-129,0-230-44-230-100s101-100,230-100s230,44,230,100S369,339.7,240,339.7z M240,159.7
		c-126,0-210,41-210,80s84,80,210,80s210-41,210-80S366,159.7,240,159.7z"/>
	<path class="st0" d="M151,445.7c-10,0-18-2-26-7c-49-28-36-137,28-249l0,0c30-52,67-96,103-124c39-30,74-39,98-25
		c25,14,34,49,28,98c-6,46-26,100-56,152s-67,96-103,124C197,434.7,172,445.7,151,445.7z M329,53.7c-16,0-37,9-60,27
		c-34,27-69,69-98,119l0,0c-63,109-69,203-36,222c17,10,45,1,76-23c34-27,69-69,98-119c29-50,48-101,54-144c5-40-1-68-18-78
		C340,55.7,335,53.7,329,53.7z"/>
	<path class="st0" d="M330,445.7c-50,0-122-61-176-156c-65-112-78-221-29-249l0,0c49-28,137,37,202,149c30,52,50,106,56,152
		c7,49-3,83-28,98C347,443.7,339,445.7,330,445.7z M135,57.7c-33,19-27,113,36,222s141,161,174,142c17-10,23-38,18-78
		c-6-43-25-94-54-144C246,90.7,168,38.7,135,57.7L135,57.7z"/>
	<circle class="st0" cx="240" cy="239.7" r="40"/>
</g>
</svg>
